<?xml version="1.0" standalone="no"?>
<!DOCTYPE svg PUBLIC "-//W3C//DTD SVG 20010904//EN"
 "http://www.w3.org/TR/2001/REC-SVG-20010904/DTD/svg10.dtd">
<svg version="1.0" xmlns="http://www.w3.org/2000/svg"
 width="600.000000pt" height="600.000000pt" viewBox="0 0 600.000000 600.000000"
 preserveAspectRatio="xMidYMid meet">
<metadata>
Created by potrace 1.11, written by Peter Selinger 2001-2013
</metadata>
<g transform="translate(0.000000,600.000000) scale(0.100000,-0.100000)"
fill="#000000" stroke="none">
<path d="M2825 4849 c-553 -53 -1057 -354 -1370 -819 -76 -113 -177 -321 -219
-450 -212 -653 -53 -1360 417 -1857 156 -165 321 -285 532 -389 697 -342 1526
-216 2092 319 274 260 468 609 543 979 126 625 -80 1276 -543 1715 -390 369
-921 552 -1452 502z m501 -234 c658 -136 1151 -630 1291 -1294 24 -112 27
-148 27 -321 0 -173 -3 -209 -27 -321 -141 -666 -630 -1155 -1296 -1296 -112
-24 -148 -27 -321 -27 -173 0 -209 3 -321 27 -666 141 -1155 630 -1296 1296
-24 112 -27 148 -27 321 0 173 3 209 27 321 151 714 708 1227 1433 1319 123
16 375 3 510 -25z"/>
<path d="M1898 4025 c-110 -30 -222 -112 -274 -200 -52 -90 -38 -201 28 -224
69 -24 73 -20 70 71 -4 78 -2 87 30 148 25 49 45 73 82 98 26 17 54 32 61 32
8 0 -33 -141 -121 -407 -73 -223 -135 -417 -139 -430 -5 -22 -3 -23 47 -23
l53 0 82 263 82 262 0 -262 1 -263 88 0 88 0 109 276 c60 152 110 273 112 268
2 -5 -23 -130 -55 -277 l-59 -267 96 0 96 0 98 463 c53 254 97 466 97 470 0 4
-46 6 -102 5 l-101 -3 -131 -343 -131 -342 -3 344 -2 344 -23 6 c-36 10 -129
5 -179 -9z"/>
<path d="M3870 3968 c-35 -5 -66 -10 -67 -12 -4 -4 -183 -843 -183 -857 0 -5
42 -9 93 -9 l94 0 22 108 c54 258 48 240 90 253 46 14 78 1 87 -37 4 -14 -1
-62 -9 -107 -9 -45 -13 -95 -10 -112 16 -86 133 -131 221 -86 20 11 80 63 132
115 91 93 94 96 64 96 -22 0 -40 -11 -69 -40 -52 -53 -95 -73 -130 -60 -26 10
-27 13 -21 58 18 119 18 159 3 188 -22 41 -57 72 -102 87 l-39 14 109 73 c61
40 114 77 120 81 5 5 -23 9 -65 9 l-75 0 -108 -86 c-60 -47 -111 -83 -114 -81
-4 5 69 363 82 405 5 14 -27 14 -125 0z"/>
<path d="M2773 3720 c-106 -25 -195 -128 -233 -269 -19 -72 -29 -205 -19 -253
27 -124 178 -154 283 -58 l43 40 11 -26 c15 -31 84 -63 136 -64 26 0 58 11 94
31 l55 31 -6 -31 -6 -31 94 0 94 0 16 73 c8 39 33 153 54 251 30 135 44 182
58 190 48 29 83 22 83 -15 0 -27 42 -51 74 -43 58 14 96 102 63 145 -40 52
-118 51 -198 -2 l-25 -18 4 30 4 29 -94 0 -95 0 -42 -207 c-61 -296 -56 -282
-98 -300 -39 -16 -78 -7 -89 20 -4 11 75 415 92 470 5 15 -4 17 -89 17 -64 0
-97 -4 -99 -12 -3 -9 -12 -9 -38 0 -36 13 -78 14 -127 2z m129 -82 c15 -12 13
-30 -23 -198 -37 -177 -40 -186 -73 -217 -31 -29 -38 -31 -65 -22 -45 16 -54
50 -41 152 12 95 27 145 67 219 37 69 95 97 135 66z"/>
<path d="M2210 3040 c-70 -12 -121 -37 -168 -83 -57 -55 -74 -90 -74 -148 0
-69 29 -119 133 -226 107 -111 131 -158 132 -258 1 -104 -32 -155 -110 -171
-47 -9 -118 28 -132 68 -32 90 25 178 114 178 31 0 31 11 1 47 -22 25 -30 28
-83 27 -129 -2 -207 -97 -183 -223 18 -93 74 -141 191 -161 75 -13 189 -2 252
25 104 43 169 148 169 272 -1 109 -29 162 -146 277 -106 104 -129 141 -130
208 -1 63 31 98 97 105 40 5 49 2 72 -22 24 -23 27 -32 22 -71 -3 -29 -13 -55
-28 -70 -24 -25 -24 -26 -5 -40 42 -30 114 -6 136 46 33 80 0 176 -70 204 -47
19 -135 26 -190 16z"/>
<path d="M2726 2720 c-62 -25 -148 -108 -175 -169 -55 -129 -64 -324 -18 -393
35 -51 82 -73 157 -73 79 1 128 24 187 88 63 68 82 115 117 280 2 11 86 48 86
38 0 -8 -65 -338 -75 -378 -5 -23 -4 -23 90 -23 92 0 95 1 101 24 3 14 27 127
54 252 37 178 52 229 66 238 49 29 84 22 84 -15 0 -27 42 -51 74 -43 58 14 96
102 63 145 -36 46 -101 50 -172 11 l-51 -28 4 28 4 28 -95 0 -95 0 -13 -72
c-15 -83 -34 -108 -84 -108 -30 0 -35 4 -40 28 -15 73 -27 100 -55 127 -27 26
-39 30 -98 32 -49 2 -80 -2 -116 -17z m156 -84 c9 -21 7 -29 -16 -56 -35 -42
-35 -91 0 -119 l25 -20 -15 -60 c-18 -69 -47 -131 -71 -151 -9 -8 -33 -14 -52
-14 -50 0 -73 31 -73 98 0 62 33 203 59 254 42 82 119 119 143 68z"/>
<path d="M3753 2723 c-57 -20 -138 -95 -169 -154 -39 -78 -56 -171 -52 -286 2
-84 7 -106 24 -130 73 -98 234 -94 335 7 63 63 87 118 123 281 4 20 15 29 47
38 48 14 129 85 129 112 0 17 -5 16 -53 -11 -30 -16 -67 -30 -84 -30 -28 0
-31 3 -37 41 -17 108 -62 149 -161 148 -33 0 -79 -7 -102 -16z m153 -88 c16
-24 16 -26 -9 -49 -35 -32 -45 -90 -22 -116 10 -11 24 -20 30 -20 26 0 -23
-158 -64 -204 -45 -52 -113 -39 -133 26 -27 91 46 326 115 369 43 25 63 24 83
-6z"/>
</g>
</svg>
